<?xml version="1.0" encoding="iso-8859-1"?>
<!-- Generator: Adobe Illustrator 19.2.1, SVG Export Plug-In . SVG Version: 6.00 Build 0)  -->
<svg xmlns="http://www.w3.org/2000/svg" xmlns:xlink="http://www.w3.org/1999/xlink" version="1.1" id="Layer_1" x="0px" y="0px" viewBox="0 0 40 40" style="enable-background:new 0 0 40 40;" xml:space="preserve" width="80px" height="80px">
<g>
	<path style="fill:#8BB7F0;" d="M6.5,37.5v-35H35c0.275,0,0.5,0.224,0.5,0.5v34c0,0.276-0.225,0.5-0.5,0.5H6.5z"/>
	<g>
		<path style="fill:#4E7AB5;" d="M35,3v34H7V3H35 M35,2H6v36h29c0.552,0,1-0.448,1-1V3C36,2.448,35.552,2,35,2L35,2z"/>
	</g>
</g>
<g>
	<path style="fill:#4E7AB5;" d="M9,38H5c-0.552,0-1-0.448-1-1V3c0-0.552,0.448-1,1-1h4V38z"/>
</g>
<g>
	<circle style="fill:#FFFFFF;" cx="22" cy="16" r="4"/>
</g>
<path style="fill:#FFFFFF;" d="M28,27c0-3.314-2.686-6-6-6c-3.314,0-6,2.686-6,6H28z"/>
</svg>
